HIERARCHY
ROOT Hips
{
 OFFSET 0.000000 0.000000 0.000000
 CHANNELS 6 Xposition Yposition Zposition Yrotation Xrotation Zrotation
 JOINT Chest
 {
  OFFSET 0.000000 9.585900 0.002600
  CHANNELS 3 Yrotation Xrotation Zrotation
  JOINT Chest2
  {
   OFFSET 0.000000 9.601200 -0.005300
   CHANNELS 3 Yrotation Xrotation Zrotation
   JOINT Chest3
   {
    OFFSET 0.000000 9.561800 0.000000
    CHANNELS 3 Yrotation Xrotation Zrotation
    JOINT Chest4
    {
     OFFSET 0.000000 9.552100 0.000000
     CHANNELS 3 Yrotation Xrotation Zrotation
     JOINT Neck
     {
      OFFSET 0.000000 14.453000 0.000000
      CHANNELS 3 Yrotation Xrotation Zrotation
      JOINT Head
      {
       OFFSET 0.000000 8.936500 -0.011300
       CHANNELS 3 Yrotation Xrotation Zrotation
       End Site
       {
        OFFSET 0.000000 17.073600 -0.006000
       }
      }
     }
     JOINT RightCollar
     {
      OFFSET -2.921100 9.558500 0.000000
      CHANNELS 3 Yrotation Xrotation Zrotation
      JOINT RightShoulder
      {
       OFFSET -13.519700 0.000000 0.000000
       CHANNELS 3 Yrotation Xrotation Zrotation
       JOINT RightElbow
       {
        OFFSET 0.000000 -29.696600 0.000000
        CHANNELS 3 Yrotation Xrotation Zrotation
        JOINT RightWrist
        {
         OFFSET 0.000000 -24.004700 0.000000
         CHANNELS 3 Yrotation Xrotation Zrotation
         End Site
         {
          OFFSET 0.000000 -17.728500 0.000000
         }
        }
       }
      }
     }
     JOINT LeftCollar
     {
      OFFSET 2.921100 9.558500 0.000000
      CHANNELS 3 Yrotation Xrotation Zrotation
      JOINT LeftShoulder
      {
       OFFSET 13.519700 0.000000 0.000000
       CHANNELS 3 Yrotation Xrotation Zrotation
       JOINT LeftElbow
       {
        OFFSET 0.000000 -29.696600 0.000000
        CHANNELS 3 Yrotation Xrotation Zrotation
        JOINT LeftWrist
        {
         OFFSET 0.000000 -24.004700 0.000000
         CHANNELS 3 Yrotation Xrotation Zrotation
         End Site
         {
          OFFSET 0.000000 -17.728500 0.000000
         }
        }
       }
      }
     }
    }
   }
  }
 }
 JOINT RightHip
 {
  OFFSET -7.771700 -0.012900 -0.001300
  CHANNELS 3 Yrotation Xrotation Zrotation
  JOINT RightKnee
  {
   OFFSET 0.000000 -40.869800 0.001200
   CHANNELS 3 Yrotation Xrotation Zrotation
   JOINT RightAnkle
   {
    OFFSET 0.000000 -39.717900 0.002100
    CHANNELS 3 Yrotation Xrotation Zrotation
    JOINT RightToe
    {
     OFFSET 0.000000 -4.965400 11.033500
     CHANNELS 3 Yrotation Xrotation Zrotation
     End Site
     {
      OFFSET 0.000000 -1.423100 5.872300
     }
    }
   }
  }
 }
 JOINT LeftHip
 {
  OFFSET 7.771700 -0.012900 -0.001300
  CHANNELS 3 Yrotation Xrotation Zrotation
  JOINT LeftKnee
  {
   OFFSET 0.000000 -40.869800 0.001200
   CHANNELS 3 Yrotation Xrotation Zrotation
   JOINT LeftAnkle
   {
    OFFSET 0.000000 -39.717900 0.002100
    CHANNELS 3 Yrotation Xrotation Zrotation
    JOINT LeftToe
    {
     OFFSET 0.000000 -4.965400 11.033500
     CHANNELS 3 Yrotation Xrotation Zrotation
     End Site
     {
      OFFSET 0.000000 -1.423100 5.872300
     }
    }
   }
  }
 }
}
MOTION
Frames: 15
Frame Time: 0.008333
-99.340206 48.823364 20.244232 177.280915 -31.523552 -3.567797 0.452850 19.184836 1.353833 0.000813 2.252554 0.132955 0.052555 3.748269 0.245813 0.364684 16.603203 1.141980 4.071882 14.633953 -4.952988 9.405542 -8.105060 -10.770267 -0.922450 -2.774801 -3.868026 6.030614 -9.007289 -12.642594 -45.963144 -53.636373 95.229114 2.826199 -0.774305 -13.268610 2.063389 -1.968070 2.749246 -9.212279 -3.061579 14.364791 83.779175 -67.315858 -121.373184 5.458939 4.817390 9.082531 -6.255666 -51.864774 -6.888929 -146.618284 80.039395 -133.828721 -30.035955 -5.351199 -1.280278 0.055271 -12.882244 -0.846840 -12.858565 -55.009042 18.778008 -74.211130 64.988867 -79.826703 30.671068 6.068907 16.095992 0.017542 -0.004208 -0.037548
-99.328383 48.843728 20.241098 177.322289 -31.517339 -3.585069 0.441632 19.198885 1.373035 0.008600 2.257639 0.131999 0.054404 3.750984 0.243570 0.372185 16.608581 1.132139 4.062712 14.621606 -4.917540 9.388164 -8.130803 -10.713641 -0.927230 -2.772209 -3.879706 6.056612 -8.985766 -12.638673 -45.869423 -53.529721 95.153013 2.807531 -0.718637 -13.286131 2.030661 -1.982507 2.762240 -9.139352 -3.007798 14.353143 83.727834 -67.298188 -121.365749 5.464913 4.901830 9.165121 -6.287533 -51.885853 -6.891014 -146.640384 80.065196 -133.849470 -30.036715 -5.238267 -1.412007 0.020369 -12.971740 -0.738121 -12.981982 -54.974519 18.848469 -74.103693 64.979529 -79.764128 30.663122 6.096295 16.085531 0.032782 -0.020428 -0.033864
-99.319327 48.870301 20.238344 177.347359 -31.509045 -3.578022 0.436591 19.207340 1.375085 0.009767 2.262732 0.130602 0.068972 3.765767 0.247818 0.396648 16.635299 1.125522 4.022645 14.578361 -4.880232 9.364992 -8.154880 -10.652064 -0.966501 -2.811867 -3.884853 6.090049 -8.942152 -12.632764 -45.788655 -53.419700 95.089080 2.781338 -0.647335 -13.307875 2.003783 -1.912049 2.802776 -9.101479 -3.062063 14.324899 83.658139 -67.262148 -121.331858 5.478297 4.990594 9.260632 -6.266321 -51.916856 -6.927753 -146.686954 80.063973 -133.884891 -30.042899 -5.161323 -1.574300 -0.005846 -13.037471 -0.587145 -13.030112 -54.967792 18.855209 -74.049853 64.980585 -79.736798 30.674650 6.120287 16.093482 0.027394 -0.046146 -0.034870
-99.308196 48.903198 20.235145 177.411301 -31.501120 -3.604395 0.391324 19.209955 1.379613 0.021024 2.273199 0.136734 0.057742 3.758720 0.240574 0.402083 16.647835 1.126305 4.018191 14.578188 -4.842463 9.336032 -8.176098 -10.584799 -0.976795 -2.827835 -3.890012 6.133860 -8.873688 -12.627376 -45.721294 -53.313343 95.042342 2.756379 -0.561984 -13.339827 1.990858 -1.846640 2.835911 -9.054619 -3.058440 14.282112 83.577965 -67.221236 -121.271416 5.495414 5.075722 9.360605 -6.221185 -51.923549 -6.966807 -146.569794 80.038657 -133.714884 -30.052621 -5.132720 -1.747576 0.012739 -13.060993 -0.417907 -13.135453 -54.957203 18.881096 -73.998083 64.985586 -79.694938 30.681633 6.161032 16.077140 0.028973 -0.080164 -0.022712
-99.290005 48.941178 20.231061 177.516841 -31.496474 -3.696047 0.326551 19.217492 1.431023 0.032573 2.283406 0.144967 0.056650 3.763771 0.239822 0.380222 16.633612 1.114392 4.019874 14.598611 -4.792971 9.301882 -8.191454 -10.510415 -0.965993 -2.808740 -3.904635 6.138064 -8.861564 -12.614248 -45.607658 -53.190814 94.972982 2.738204 -0.473637 -13.383217 1.983374 -1.821222 2.850084 -9.026273 -2.989077 14.242820 83.492944 -67.187924 -121.191879 5.512515 5.151276 9.458259 -6.315766 -51.920603 -6.911901 -146.639601 80.051899 -133.759156 -30.072372 -5.126535 -1.919573 -0.013584 -13.062640 -0.249489 -13.295103 -54.941397 18.951033 -73.981868 64.992196 -79.660179 30.682682 6.247013 16.051163 0.045598 -0.155518 -0.011372
-99.278507 48.980698 20.225318 177.609579 -31.494318 -3.743493 0.279661 19.226284 1.460466 0.030620 2.288212 0.144984 0.081814 3.792149 0.266571 0.329741 16.627506 1.084980 4.000460 14.601576 -4.741974 9.263885 -8.197952 -10.429496 -0.967818 -2.796224 -3.918654 6.164777 -8.816255 -12.607660 -45.575369 -53.124459 94.952473 2.724941 -0.394870 -13.433861 1.963272 -1.824289 2.855308 -9.015262 -2.913077 14.196323 83.410337 -67.164850 -121.103484 5.525312 5.219649 9.549299 -6.377576 -51.923643 -6.910279 -146.782526 80.072856 -133.903623 -30.103792 -5.082728 -2.082120 -0.042308 -13.097844 -0.079264 -13.388105 -54.933836 18.953784 -73.970520 64.998749 -79.627825 30.675777 6.307181 16.022499 0.063679 -0.201284 -0.006160
-99.268586 49.019326 20.218691 177.709567 -31.490595 -3.789946 0.270265 19.244583 1.538757 -0.011151 2.280369 0.113056 0.073505 3.807514 0.272107 0.298398 16.682578 1.105309 3.976570 14.570632 -4.723587 9.222342 -8.194356 -10.343303 -0.966782 -2.860863 -3.965618 6.197474 -8.749024 -12.605054 -45.612755 -53.124007 94.978594 2.658922 -0.298004 -13.478022 1.928715 -1.801378 2.868664 -8.989169 -2.913994 14.107063 83.337562 -67.155450 -121.014572 5.534977 5.279559 9.639272 -6.391157 -51.925023 -6.925322 -146.694980 80.060914 -133.811149 -30.134850 -5.026954 -2.225517 -0.065859 -13.130839 0.097652 -13.497145 -54.927016 18.955720 -73.951399 65.014157 -79.599832 30.676703 6.361822 15.996173 0.071793 -0.246909 -0.000188
-99.262433 49.056662 20.208797 177.868151 -31.498897 -3.850759 0.168568 19.279426 1.564744 -0.018196 2.279058 0.107875 0.065530 3.821942 0.278787 0.255569 16.698288 1.103256 3.961659 14.583328 -4.677797 9.176105 -8.178443 -10.250792 -0.959814 -2.818354 -3.988623 6.217926 -8.775870 -12.622047 -45.532536 -53.042985 94.912890 2.677518 -0.272368 -13.520388 1.912722 -1.805876 2.865448 -8.994861 -2.855428 14.035993 83.281785 -67.162839 -120.934263 5.538763 5.330423 9.731635 -6.435782 -51.924308 -6.954377 -146.427256 79.983561 -133.606850 -30.047651 -4.947073 -2.273223 -0.154843 -13.166310 0.233836 -13.621820 -54.909849 18.916072 -73.929782 65.036963 -79.566899 30.671264 6.470477 15.966609 0.099987 -0.345230 0.013852
-99.257523 49.088497 20.202236 177.951033 -31.484083 -3.874572 0.129100 19.292166 1.595938 0.001660 2.301303 0.137260 0.026884 3.810731 0.252015 0.208413 16.711540 1.101117 3.945263 14.604923 -4.628837 9.124967 -8.146565 -10.150933 -0.950727 -2.809080 -4.015634 6.235690 -8.788575 -12.637967 -45.441465 -52.957768 94.833370 2.693057 -0.265079 -13.546613 1.905035 -1.816743 2.856033 -9.018097 -2.799280 13.968292 83.244740 -67.185244 -120.867275 5.532427 5.372287 9.823767 -6.347116 -51.960767 -7.010825 -146.209472 79.893138 -133.400302 -30.017914 -4.846934 -2.327434 -0.209891 -13.224406 0.377119 -13.692901 -54.917936 18.890036 -73.907378 65.066548 -79.516585 30.639099 6.533527 15.923170 0.130719 -0.388778 0.026058
-99.257911 49.116506 20.196463 177.997424 -31.462735 -3.858789 0.108980 19.298703 1.605893 0.002775 2.311906 0.147703 -0.000695 3.791796 0.222325 0.180011 16.728460 1.110465 3.925498 14.645150 -4.563473 9.068727 -8.097186 -10.043645 -0.946728 -2.782486 -4.030953 6.248306 -8.834271 -12.660775 -45.352963 -52.869023 94.753991 2.685288 -0.257055 -13.558454 1.908531 -1.833510 2.838109 -9.034486 -2.772317 13.936449 83.107360 -67.200507 -120.732573 5.518876 5.406526 9.919930 -6.205174 -51.996681 -7.118492 -146.093364 79.836812 -133.248410 -30.039441 -4.803788 -2.423937 -0.214663 -13.247149 0.520832 -13.719709 -54.933512 18.823339 -73.855639 65.104806 -79.473440 30.682465 6.564352 15.937290 0.097810 -0.430384 0.014682
-99.265611 49.143945 20.187477 178.096152 -31.460289 -3.838171 0.028205 19.326083 1.580245 -0.003478 2.314271 0.148637 -0.015195 3.781934 0.202281 0.159840 16.722194 1.099132 3.901341 14.709913 -4.467508 9.006871 -8.031063 -9.929224 -0.955360 -2.730521 -4.022141 6.264701 -8.839165 -12.688745 -45.318092 -52.791234 94.724053 2.681156 -0.257243 -13.557439 1.904580 -1.828311 2.843206 -9.098030 -2.689065 13.902622 83.153381 -67.243397 -120.739963 5.505435 5.442037 10.027946 -6.066691 -52.007805 -7.267136 -146.090278 79.794155 -133.272611 -30.023341 -4.754549 -2.416074 -0.280246 -13.252308 0.615392 -13.717386 -54.938898 18.693318 -73.819731 65.127241 -79.438191 30.681235 6.595704 15.930809 0.115474 -0.459921 0.027084
-99.272561 49.169087 20.180874 178.183081 -31.448491 -3.829303 -0.044331 19.338660 1.569035 -0.015262 2.306970 0.130411 -0.012065 3.801511 0.224155 0.112911 16.729472 1.098757 3.881916 14.749583 -4.408182 8.939816 -7.949012 -9.808324 -0.939912 -2.738527 -4.059857 6.209047 -8.765480 -12.673822 -45.266011 -52.745622 94.734686 2.681285 -0.258060 -13.546697 1.903243 -1.836118 2.855189 -9.138713 -2.636649 13.846819 83.202511 -67.281345 -120.765836 5.499015 5.487401 10.153826 -5.938972 -52.021220 -7.376353 -146.166423 79.785849 -133.378876 -30.032391 -4.714389 -2.396331 -0.370317 -13.237179 0.702801 -13.734896 -54.949851 18.601716 -73.783773 65.144145 -79.401085 30.676459 6.624438 15.921826 0.123292 -0.481487 0.029159
-99.272848 49.193009 20.176383 178.257019 -31.434685 -3.866823 -0.094147 19.341208 1.607451 -0.022160 2.305541 0.116609 -0.011941 3.815101 0.246869 0.059814 16.747733 1.135871 3.861428 14.788257 -4.391398 8.868670 -7.852181 -9.681809 -0.912779 -2.749880 -4.138273 6.160004 -8.741753 -12.663234 -45.168589 -52.635864 94.683754 2.681621 -0.248887 -13.528093 1.924969 -1.856453 2.808340 -9.172512 -2.603621 13.823694 83.187489 -67.311333 -120.760949 5.503008 5.542001 10.298310 -5.870252 -52.029667 -7.394637 -146.195037 79.791735 -133.421878 -30.017255 -4.679758 -2.391205 -0.431730 -13.213232 0.768560 -13.814341 -54.953038 18.601583 -73.762606 65.161170 -79.375801 30.680404 6.706968 15.909898 0.141817 -0.560696 0.037021
-99.279098 49.213370 20.175592 178.330459 -31.402822 -3.881340 -0.161465 19.317665 1.600206 -0.018836 2.315551 0.136320 -0.019016 3.824372 0.282302 0.014042 16.743022 1.117121 3.851811 14.811227 -4.398909 8.776481 -7.714069 -9.487709 -0.945136 -2.654890 -4.149812 6.142540 -8.794392 -12.685600 -45.064424 -52.512977 94.633498 2.676919 -0.226328 -13.509580 1.936664 -1.860338 2.786672 -9.205100 -2.576524 13.818421 83.152928 -67.334551 -120.750608 5.519017 5.599286 10.449674 -5.778191 -52.060675 -7.442367 -146.169646 79.792695 -133.414108 -30.034216 -4.642839 -2.404105 -0.435983 -13.188570 0.848990 -13.863000 -54.981449 18.567664 -73.722401 65.171308 -79.324870 30.667045 6.745460 15.893473 0.163366 -0.581443 0.052072
-99.283564 49.233298 20.173690 178.353709 -31.393428 -3.891565 -0.178070 19.311665 1.614564 -0.017670 2.319159 0.153105 -0.026879 3.822171 0.282654 -0.006778 16.746798 1.115594 3.822504 14.900309 -4.298249 8.708976 -7.608619 -9.390778 -0.966932 -2.614273 -4.156331 6.098221 -8.774900 -12.667798 -44.958635 -52.385819 94.586769 2.664999 -0.194580 -13.503215 1.938950 -1.854372 2.793604 -9.226623 -2.567370 13.808510 83.074481 -67.360418 -120.712981 5.547587 5.651503 10.598409 -5.671538 -52.073284 -7.451536 -146.094583 79.789962 -133.354600 -30.048186 -4.604449 -2.425970 -0.436889 -13.163566 0.930607 -13.884855 -54.987649 18.564906 -73.711432 65.175080 -79.313576 30.668205 6.766501 15.893454 0.169675 -0.602470 0.057925
